<?xml version="1.0"?>
<svg xmlns="http://www.w3.org/2000/svg" xmlns:xlink="http://www.w3.org/1999/xlink" xmlns:svgjs="http://svgjs.com/svgjs" version="1.1" width="512" height="512" x="0" y="0" viewBox="0 0 74 74" style="enable-background:new 0 0 512 512" xml:space="preserve" class=""><g><path xmlns="http://www.w3.org/2000/svg" d="m46.238 70.813h-20.176a3.355 3.355 0 0 1 -3.351-3.352v-32.061a3.356 3.356 0 0 1 3.351-3.351h20.176a3.356 3.356 0 0 1 3.352 3.351v32.061a3.356 3.356 0 0 1 -3.352 3.352zm-20.176-36.768a1.352 1.352 0 0 0 -1.351 1.355v32.061a1.353 1.353 0 0 0 1.351 1.352h20.176a1.354 1.354 0 0 0 1.352-1.352v-32.061a1.353 1.353 0 0 0 -1.352-1.351z" fill="#33ab0f" data-original="#000000" style="" class=""/><path xmlns="http://www.w3.org/2000/svg" d="m48.328 41h-24.355a1 1 0 0 1 0-2h24.355a1 1 0 0 1 0 2z" fill="#33ab0f" data-original="#000000" style="" class=""/><path xmlns="http://www.w3.org/2000/svg" d="m31.894 34.045h-5.221a1 1 0 0 1 -.98-.8 19.08 19.08 0 0 0 -11.46-14.39 1 1 0 0 1 -.534-1.309l1.994-4.738a1 1 0 0 1 1.307-.534c11.587 4.879 14.921 15 15.876 20.6a1 1 0 0 1 -.985 1.168zm-4.418-2h3.21c-1.256-5.983-4.667-13.4-13.544-17.523l-1.219 2.9a20.868 20.868 0 0 1 11.553 14.623z" fill="#33ab0f" data-original="#000000" style="" class=""/><path xmlns="http://www.w3.org/2000/svg" d="m45.979 34.045h-5.25a1 1 0 0 1 -.985-1.168c.955-5.6 4.289-15.724 15.876-20.6a1 1 0 0 1 1.31.535l1.994 4.738a1 1 0 0 1 -.534 1.309c-7.631 3.214-10.429 9.6-11.432 14.394a1 1 0 0 1 -.979.792zm-4.041-2h3.242a20.971 20.971 0 0 1 11.52-14.625l-1.22-2.9c-8.88 4.124-12.287 11.542-13.542 17.525z" fill="#33ab0f" data-original="#000000" style="" class=""/><path xmlns="http://www.w3.org/2000/svg" d="m39.18 34.045h-6.06a1 1 0 0 1 -1-1v-26.733a1 1 0 0 1 1-1h6.06a1 1 0 0 1 1 1v26.733a1 1 0 0 1 -1 1zm-5.06-2h4.06v-24.733h-4.06z" fill="#33ab0f" data-original="#000000" style="" class=""/><path xmlns="http://www.w3.org/2000/svg" d="m15.6 16.611a1 1 0 0 1 -.724-.309 9.163 9.163 0 0 0 -4.587-2.124 1 1 0 1 1 .377-1.964 10.9 10.9 0 0 1 5.661 2.711 1 1 0 0 1 -.727 1.686z" fill="#33ab0f" data-original="#000000" style="" class=""/><path xmlns="http://www.w3.org/2000/svg" d="m56.933 16.4a1 1 0 0 1 -.657-1.755 11.3 11.3 0 0 1 5.367-2.428 1 1 0 0 1 .369 1.966 9.387 9.387 0 0 0 -4.423 1.971 1 1 0 0 1 -.656.246z" fill="#33ab0f" data-original="#000000" style="" class=""/><path xmlns="http://www.w3.org/2000/svg" d="m36.15 7.312a1 1 0 0 1 -1-1v-4.5a1 1 0 0 1 2 0v4.5a1 1 0 0 1 -1 1z" fill="#33ab0f" data-original="#000000" style="" class=""/></g></svg>
