<?xml version="1.0"?>
<svg xmlns="http://www.w3.org/2000/svg" xmlns:xlink="http://www.w3.org/1999/xlink" xmlns:svgjs="http://svgjs.com/svgjs" version="1.1" width="512" height="512" x="0" y="0" viewBox="0 0 512 512" style="enable-background:new 0 0 512 512" xml:space="preserve" class=""><g><path xmlns="http://www.w3.org/2000/svg" d="m512 341.089v-216.206l-38.632-61.572h-362.348v326.61h12.758l-12.761 25.898v32.869h117.538v-32.868l-12.761-25.898h152.869l-12.762 25.898v32.869h117.539v-32.869l-12.771-25.918h12.146zm-298.444 78.225v14.375h-87.538v-14.375l14.483-29.393h58.572zm244.885 14.375h-87.539v-14.375l14.483-29.393c9.803 0 9.72-.004 58.571-.004l14.484 29.396v14.376zm-54.071-58.787v-252.391h-15v252.406l-263.35.004v-296.61h263.35v29.2h15v-29.2h60.701l31.929 50.889v206.614l-31.377 39.088z" fill="#33ab0f" data-original="#000000" style="" class=""/><path xmlns="http://www.w3.org/2000/svg" d="m50.54 135.711h-50.54v181.81h50.54v44h37.98v-15h-22.98v-66.52h-15v22.52h-35.54v-151.81h35.54v114.29h15v-158.29h22.98v-15h-37.98z" fill="#33ab0f" data-original="#000000" style="" class=""/><path xmlns="http://www.w3.org/2000/svg" d="m152.407 165.767h210.574v-52.169h-210.574zm15-37.169h180.574v22.169h-180.574z" fill="#33ab0f" data-original="#000000" style="" class=""/><path xmlns="http://www.w3.org/2000/svg" d="m152.407 252.7h210.574v-52.168h-210.574zm15-37.168h180.574v22.168h-180.574z" fill="#33ab0f" data-original="#000000" style="" class=""/><path xmlns="http://www.w3.org/2000/svg" d="m152.407 339.633h210.574v-52.169h-210.574zm15-37.169h180.574v22.169h-180.574z" fill="#33ab0f" data-original="#000000" style="" class=""/><path xmlns="http://www.w3.org/2000/svg" d="m481.384 307.685h-15v-91.835h15zm0-106.835h-15v-15h15zm0-30h-15v-15h15z" fill="#33ab0f" data-original="#000000" style="" class=""/></g></svg>
