<?xml version="1.0"?>
<svg xmlns="http://www.w3.org/2000/svg" xmlns:xlink="http://www.w3.org/1999/xlink" xmlns:svgjs="http://svgjs.com/svgjs" version="1.1" width="512" height="512" x="0" y="0" viewBox="0 0 512 512" style="enable-background:new 0 0 512 512" xml:space="preserve"><g><path xmlns="http://www.w3.org/2000/svg" d="m168 400c-14.2539063 0-27.5175781 7.6679688-34.6103516 20.0048828-3.5263671 6.116211-5.3896484 13.0302735-5.3896484 19.9951172 0 22.0556641 17.9443359 40 40 40s40-17.9443359 40-40c0-6.9648438-1.8632813-13.8789063-5.3847656-19.9873047-7.0976563-12.3447265-20.3613281-20.0126953-34.6152344-20.0126953zm0 64c-13.2333984 0-24-10.7666016-24-24 0-4.2236328 1.09375-8.2626953 3.2558594-12.0126953 4.2509765-7.3935547 12.2001953-11.9873047 20.7441406-11.9873047s16.4931641 4.59375 20.7490234 11.9951172c2.1572266 3.7421875 3.2509766 7.78125 3.2509766 12.0048828 0 13.2333984-10.7666016 24-24 24z" fill="#33ab0f" data-original="#000000" style=""/><path xmlns="http://www.w3.org/2000/svg" d="m504 384h-80v-8h40c4.4179688 0 8-3.5820313 8-8v-48c4.4179688 0 8-3.5820313 8-8v-96c0-4.4179688-3.5820313-8-8-8v-48c0-1.4592285-.3969727-2.822998-1.0795898-4.0007324 1.7700195-3.0603027 1.3549805-7.0375977-1.2631836-9.6564941l-16-16c-3.125-3.1230469-8.1894531-3.1230469-11.3144531 0-3.1240234 3.125-3.1240234 8.1894531 0 11.3144531l10.3427734 10.3427734h-12.6855469c-4.4179688 0-8 3.5820313-8 8v48c-4.4179688 0-8 3.5820313-8 8v96c0 4.4179688 3.5820313 8 8 8v16h-8v-16c0-2.1220703-.8427734-4.15625-2.3427734-5.6572266l-16-16c-1.5009766-1.5-3.5351563-2.3427734-5.6572266-2.3427734h-56c-2.1220703 0-4.15625.8427734-5.6572266 2.3427734l-16 16c-1.5 1.5009766-2.3427734 3.5351563-2.3427734 5.6572266v32c0 2.1220703.8427734 4.15625 2.3427734 5.6572266l13.6572266 13.65625v12.6865234h-8-24v-152c0-2.1220703-.8427734-4.15625-2.3427734-5.6572266l-32-32c-1.5009766-1.5-3.5351563-2.3427734-5.6572266-2.3427734h-156.6855469l58.3427734-58.3427734c3.1240234-3.125 3.1240234-8.1894531 0-11.3144531-3.125-3.1230469-8.1894531-3.1230469-11.3144531 0l-69.6572265 69.6572265h-12.6855469c-2.1220703 0-4.15625.8427734-5.6572266 2.3427734l-32 32c-1.5 1.5009766-2.3427734 3.5351563-2.3427734 5.6572266v152h-24c-4.4179688 0-8 3.5820313-8 8v32c0 4.4179688 3.5820313 8 8 8h88.4555664c-.2973633 2.671875-.4555664 5.34375-.4555664 8 0 39.7011719 32.2988281 72 72 72s72-32.2988281 72-72c0-2.65625-.1582031-5.328125-.4555664-8h88.4555664 136v12.6865234l-7.7583008 7.7578125c-4.7646484-2.8193359-10.3159179-4.4443359-16.2416992-4.4443359-17.6445313 0-32 14.3554688-32 32s14.3554688 32 32 32 32-14.3554688 32-32c0-5.9257813-1.625-11.4765625-4.4443359-16.2412109l10.1015625-10.1015625c1.5-1.5009766 2.3427734-3.5351563 2.3427734-5.6572266v-16h24c4.4179688 0 8-3.5820313 8-8v-32c0-4.4179687-3.5820312-8-8-8zm-268.107666 32c-2.0129395-5.6733398-4.7001953-11.0419922-8.0183105-16h92.1259765v16zm-187.892334-72h24c4.4179688 0 8-3.5820313 8-8s-3.5820313-8-8-8h-24v-16h24c4.4179688 0 8-3.5820313 8-8s-3.5820313-8-8-8h-24v-16h24c4.4179688 0 8-3.5820313 8-8s-3.5820313-8-8-8h-24v-28.6865234l27.3134766-27.3134766h185.3730469l27.3134765 27.3134766v28.6865234h-24c-4.4179688 0-8 3.5820313-8 8s3.5820313 8 8 8h24v16h-24c-4.4179688 0-8 3.5820313-8 8s3.5820313 8 8 8h24v16h-24c-4.4179688 0-8 3.5820313-8 8s3.5820313 8 8 8h24v40h-74.7680664c-12.8183594-10.3374023-28.7590332-16-45.2319336-16-16.4699707 0-32.407959 5.6601563-45.230957 16h-74.769043zm-32 56h92.1286621c-3.3115234 4.9506836-5.9973145 10.3173828-8.0158691 16h-84.112793zm152 96c-30.8789063 0-56-25.1210938-56-56 0-4.6523438.5927734-9.3828125 1.7402344-13.9785156 2.8476563-10.90625 8.8056641-20.5947266 17.2226563-28.0136719 10.2714843-9.0332031 23.4248046-14.0078125 37.0371093-14.0078125s26.765625 4.9746094 37.0302734 14.0009766c8.4140625 7.4169922 14.3671875 17.0908203 17.21875 27.9794922 1.1621094 4.6640625 1.7509766 9.3808593 1.7509766 14.0195312 0 30.8789063-25.1210937 56-56 56zm288-16c0 8.8222656-7.1777344 16-16 16s-16-7.1777344-16-16 7.1777344-16 16-16c1.4287109 0 2.8076172.2060547 4.1264648.559082l-9.7836914 9.7836914c-3.1240234 3.125-3.1240234 8.1894531 0 11.3144531 1.5625 1.5615235 3.609375 2.3427735 5.6572266 2.3427735s4.0947266-.78125 5.6572266-2.3427734l9.7836914-9.7836914c.3530273 1.3188476.559082 2.6977539.559082 4.1264648zm-16-256h24v80h-24zm8-56h8v40h-8zm-8 184c4.4179688 0 8-3.5820313 8-8v-24h8v40h-48v-8zm-90.3427734 10.3427734-13.6572266-13.65625v-25.3730469l11.3134766-11.3134765h49.3730469l11.3134765 11.3134766v12.6865234h-8c-4.4179688 0-8 3.5820313-8 8v24c0 4.4179688 3.5820313 8 8 8h8v8h-56v-16c0-2.1220703-.8427734-4.15625-2.3427734-5.6572266zm146.3427734 53.6572266h-160v-16h8 72 80z" fill="#33ab0f" data-original="#000000" style=""/><path xmlns="http://www.w3.org/2000/svg" d="m232 352c4.4179688 0 8-3.5820313 8-8v-80c0-4.4179688-3.5820313-8-8-8h-128c-4.4179688 0-8 3.5820313-8 8v80c0 4.4179688 3.5820313 8 8 8zm-120-80h112v64h-112z" fill="#33ab0f" data-original="#000000" style=""/><path xmlns="http://www.w3.org/2000/svg" d="m127.1162109 71.9511719c24.3720703 2.7089844 46.8730469 1.8886719 66.1474609-.4462891-23.9970702 10.8896485-51.4511718 21.2978516-74.3955077 24.5751953-54.1503906 7.7363281-109.1894531.078125-109.7382813 0-4.3779297-.6279297-8.4248047 2.4179688-9.0488281 6.7900391-.6240234 4.3740234 2.4140625 8.4248047 6.7871094 9.0498047 1.5390625.2197266 26.1943359 3.6611328 59.0146484 3.6611328 16.9277344 0 36.0292969-.9160156 55.2490234-3.6611328 50.2841797-7.1840821 117.5341797-44.612793 134.8681641-54.6435547 17.3339844 10.0307617 84.5839844 47.4594727 134.8681641 54.6435547 19.2226563 2.7460938 38.3193359 3.6611328 55.2490234 3.6611328 32.8164063 0 57.4755859-3.4414063 59.0146484-3.6611328 4.3730469-.625 7.4111328-4.6757813 6.7871094-9.0498047-.6240234-4.3720703-4.6669922-7.4228516-9.0488281-6.7900391-.5498047.078125-55.5917969 7.7373047-109.7382813 0-22.9414063-3.2773438-50.4003906-13.6865234-74.3945313-24.5751953 19.2724609 2.3339844 41.7783203 3.1523438 66.1464844.4462891 73.9384766-8.2158203 122.7324219-56.2529297 124.7734375-58.2939453 3.1210938-3.1220703 3.1210938-8.1796875.0029297-11.3046875-3.1171875-3.125-8.1816406-3.1308594-11.3105469-.015625-.4628906.4609375-47.0410156 46.1347656-115.2333984 53.7119141-68.8857421 7.6552734-123.4287109-15.1728516-123.9648437-15.4023438-.1000977-.0427246-.2016602-.0742188-.3022461-.112793-.0708008-.0268555-.1411133-.0539551-.2124023-.0791016-.1689453-.0588379-.3378906-.1108398-.5078125-.157959-.0664063-.0183105-.1328125-.0366211-.199707-.0532227-.175293-.0437012-.3510742-.0810547-.5273438-.1125488-.0678711-.012207-.1352539-.0234375-.2036133-.0336914-.1738281-.0263672-.347168-.0473633-.5205078-.0620117-.078125-.0068359-.15625-.0119629-.234375-.0163574-.1630859-.0090332-.3256836-.0134277-.4880371-.0124512-.09375.0004883-.1872559.0031738-.2810059.0068359-.1472168.0061035-.2937012.015625-.4399414.0300293-.1086426.0102539-.217041.0231934-.3256836.0383301-.1328125.0183105-.2646484.0400391-.3962402.0649414-.1181641.0224609-.2355957.0471191-.3532715.0749512-.1235352.0292969-.2458496.0620117-.3676758.097168-.1206055.034668-.2407227.0712891-.3603516.1118164-.1184082.0402832-.2346191.0842285-.3510742.1298828-.0744629.0292969-.1503906.0515137-.2246094.083252-.5429688.2304688-55.0957031 23.0546875-123.9716797 15.4052734-68.1923827-7.5771484-114.7705077-53.2509765-115.2265624-53.7060547-3.125-3.1230469-8.1894531-3.1230469-11.3144531 0-3.1240234 3.125-3.1240234 8.1894531 0 11.3144531 2.0410156 2.0410157 50.8349609 50.0781251 124.7734374 58.2939454z" fill="#33ab0f" data-original="#000000" style=""/><path xmlns="http://www.w3.org/2000/svg" d="m236.9384766 175.390625c.9902343.4101563 2.0292968.609375 3.0595703.609375 2.0820313 0 4.1289063-.8125 5.6591797-2.3427734l48-48c2.2871094-2.2880859 2.9716797-5.7294922 1.7333984-8.71875s-4.1552734-4.9384766-7.390625-4.9384766h-16v-24c0-3.2353516-1.9492188-6.1523438-4.9384766-7.390625-2.9921875-1.2392578-6.4316406-.5546875-8.71875 1.7333984l-48 48c-2.2871094 2.2880859-2.9716797 5.7294922-1.7333984 8.71875s4.1552734 4.9384766 7.390625 4.9384766h16v24c0 3.2353516 1.9492188 6.1523438 4.9384766 7.390625zm19.0615234-68.0771484v12.6865234c0 4.4179688 3.5820313 8 8 8h4.6865234l-20.6865234 20.6865234v-12.6865234c0-4.4179688-3.5820313-8-8-8h-4.6865234z" fill="#33ab0f" data-original="#000000" style=""/><circle xmlns="http://www.w3.org/2000/svg" cx="136" cy="288" r="8" fill="#33ab0f" data-original="#000000" style=""/><circle xmlns="http://www.w3.org/2000/svg" cx="136" cy="320" r="8" fill="#33ab0f" data-original="#000000" style=""/><circle xmlns="http://www.w3.org/2000/svg" cx="168" cy="288" r="8" fill="#33ab0f" data-original="#000000" style=""/><circle xmlns="http://www.w3.org/2000/svg" cx="168" cy="320" r="8" fill="#33ab0f" data-original="#000000" style=""/><circle xmlns="http://www.w3.org/2000/svg" cx="200" cy="288" r="8" fill="#33ab0f" data-original="#000000" style=""/><circle xmlns="http://www.w3.org/2000/svg" cx="200" cy="320" r="8" fill="#33ab0f" data-original="#000000" style=""/><circle xmlns="http://www.w3.org/2000/svg" cx="168" cy="440" r="8" fill="#33ab0f" data-original="#000000" style=""/></g></svg>
