<?xml version="1.0"?>
<svg xmlns="http://www.w3.org/2000/svg" xmlns:xlink="http://www.w3.org/1999/xlink" xmlns:svgjs="http://svgjs.com/svgjs" version="1.1" width="512" height="512" x="0" y="0" viewBox="0 0 64 64" style="enable-background:new 0 0 512 512" xml:space="preserve" class=""><g><path xmlns="http://www.w3.org/2000/svg" d="m1 62.998h62c.553 0 1-.447 1-1v-4c0-.553-.447-1-1-1h-3v-8h3c.553 0 1-.447 1-1v-4c0-.553-.447-1-1-1h-3.677l-20.665-14.723c.223-.737.343-1.511.349-2.302.015-1.971-.678-3.821-1.945-5.278l.739-3.693h.187c.315 0 .611-.148.801-.4l2.999-4.004c.129-.173.199-.384.199-.6v-9.996c0-.553-.447-1-1-1h-18.003c-.553 0-1 .447-1 1v9.996c0 .216.07.427.199.6l2.999 4.004c.189.252.485.4.801.4h.033v2.154c-.01.268.082.538.286.742l3.957 3.959c.378.378.586.881.586 1.415s-.208 1.035-.586 1.413c-.131.131-.279.231-.433.318.001-.202-.042-.406-.168-.584-.319-.449-.943-.554-1.395-.234l-.771.55c-.02-.018-.043-.031-.062-.05l-2.633-2.631c-.264-.264-.653-.36-1.007-.247-.355.112-.619.412-.685.779-.294 1.655-.052 3.334.645 4.813l-19.085 13.599h-3.665c-.553 0-1 .447-1 1v4c0 .553.447 1 1 1h3.001v8h-3.001c-.553 0-1 .447-1 1v4c0 .553.447 1 1 1zm22.984-51.333v-8.663h16.002v8.663l-2.499 3.337h-11.004zm7.689 16.436c.757-.755 1.173-1.76 1.173-2.828 0-1.069-.416-2.073-1.172-2.829l-3.657-3.659v-1.782h7.744l-.759 3.794c-.007.032.004.063 0 .096-.007.069-.007.135.001.204.006.063.017.122.035.182.018.061.042.117.072.174.032.061.068.115.112.168.021.025.029.057.053.08 1.129 1.128 1.743 2.641 1.731 4.26-.012 1.618-.646 3.137-1.784 4.275-1.134 1.134-2.641 1.758-4.243 1.758s-3.109-.624-4.243-1.758c-.098-.098-.179-.209-.27-.313l1.192-.85c1.375.425 2.93.113 4.015-.972zm-6.57-.915.732.731-.415.295c-.133-.333-.246-.674-.317-1.026zm-.275 3.904c.158.19.317.382.494.559 1.56 1.56 3.608 2.34 5.657 2.34s4.098-.78 5.657-2.34c.461-.461.851-.973 1.183-1.516l18.058 12.865h-47.766zm-22.828 13.908h60v2h-60zm4.001 4h51.999v8h-51.999zm-4.001 10h60v2h-60z" fill="#ee313f" data-original="#000000" style="" class=""/><path xmlns="http://www.w3.org/2000/svg" d="m37.984 51.998h-12c-.553 0-1 .447-1 1s.447 1 1 1h12c.553 0 1-.447 1-1s-.447-1-1-1z" fill="#ee313f" data-original="#000000" style="" class=""/></g></svg>
